<?xml version="1.0" standalone="no"?>
<!DOCTYPE svg PUBLIC "-//W3C//DTD SVG 20010904//EN"
 "http://www.w3.org/TR/2001/REC-SVG-20010904/DTD/svg10.dtd">
<svg version="1.0" xmlns="http://www.w3.org/2000/svg"
 width="224.000000pt" height="224.000000pt" viewBox="0 0 224.000000 224.000000"
 preserveAspectRatio="xMidYMid meet">
<metadata>
Created by potrace 1.11, written by Peter Selinger 2001-2013
</metadata>
<g transform="translate(0.000000,224.000000) scale(0.100000,-0.100000)"
fill="#000000" stroke="none">
<path d="M999 2236 c-2 -2 -24 -6 -49 -9 -305 -39 -618 -248 -787 -527 -103
-171 -154 -348 -158 -550 -3 -150 11 -251 51 -375 27 -82 99 -231 134 -275
l19 -25 417 416 416 416 -148 0 c-82 0 -163 2 -181 4 -47 5 -105 49 -131 99
-44 85 -12 196 70 245 32 19 52 20 468 20 490 0 471 3 528 -79 l27 -39 0 -437
0 -436 -24 -35 c-84 -124 -270 -112 -328 21 -12 26 -15 76 -16 203 l-1 168
-413 -413 c-227 -227 -412 -417 -410 -422 6 -18 169 -105 254 -135 138 -51
249 -69 403 -66 74 1 149 6 165 9 166 37 282 80 395 149 264 160 449 422 516
730 23 103 27 303 9 407 -81 464 -422 819 -880 917 -62 13 -336 28 -346 19z"/>
</g>
</svg>
